<svg width="66" height="24" viewBox="0 0 66 24" fill="none" xmlns="http://www.w3.org/2000/svg">
<path d="M8.48763 5.84961H4.21875V17.9923H8.48763V5.84961Z" fill="#2B263B"/>
<path d="M9.10059 17.9921L15.133 5.6875L21.1692 17.9921H9.10059Z" fill="#2B263B"/>
<path fill-rule="evenodd" clip-rule="evenodd" d="M44.9524 7.2002C44.7779 7.2002 44.6073 7.25156 44.4623 7.34781C44.3172 7.44405 44.2041 7.58085 44.1373 7.7409C44.0705 7.90095 44.053 8.07706 44.0871 8.24697C44.1211 8.41687 44.2052 8.57294 44.3285 8.69544C44.4519 8.81794 44.6092 8.90136 44.7803 8.93515C44.9515 8.96895 45.1289 8.9516 45.2901 8.88531C45.4513 8.81901 45.5891 8.70675 45.6861 8.56271C45.783 8.41867 45.8348 8.24933 45.8348 8.07609C45.8351 7.96097 45.8125 7.84693 45.7683 7.74051C45.7241 7.6341 45.6591 7.5374 45.5771 7.456C45.4951 7.3746 45.3977 7.3101 45.2905 7.2662C45.1833 7.2223 45.0684 7.19987 44.9524 7.2002ZM27.1982 7.4266H30.2738C30.6504 7.41544 31.0254 7.47943 31.3766 7.61478C31.7278 7.75013 32.048 7.95408 32.3183 8.21455C32.5887 8.47503 32.8036 8.78672 32.9503 9.13116C33.0971 9.47559 33.1727 9.84577 33.1727 10.2198C33.1727 10.5937 33.0971 10.9639 32.9503 11.3084C32.8036 11.6528 32.5887 11.9645 32.3183 12.225C32.048 12.4854 31.7278 12.6894 31.3766 12.8247C31.0254 12.9601 30.6504 13.0241 30.2738 13.0129H28.4014V16.7753H27.1982V7.4266ZM28.4014 11.8185H30.2738C30.4907 11.827 30.707 11.7919 30.9099 11.7154C31.1127 11.6389 31.2979 11.5225 31.4544 11.3732C31.6108 11.2239 31.7353 11.0448 31.8203 10.8466C31.9053 10.6484 31.9491 10.4352 31.9491 10.2198C31.9491 10.0043 31.9053 9.79112 31.8203 9.59292C31.7353 9.39471 31.6108 9.21559 31.4544 9.0663C31.2979 8.917 31.1127 8.80061 30.9099 8.72409C30.707 8.64757 30.4907 8.61251 30.2738 8.621H28.4014V11.8185ZM34.3821 7.67297H35.5853V16.7753H34.3821V7.67297ZM36.7032 13.2518C36.7032 11.1367 38.0067 9.71587 39.9618 9.71587C40.3553 9.70397 40.7472 9.77175 41.1135 9.91506C41.4798 10.0584 41.8129 10.2742 42.0924 10.5495C42.3967 10.877 42.6318 11.2618 42.7838 11.6811C42.9358 12.1003 43.0015 12.5456 42.9772 12.9905L42.9622 13.5753H42.3757L39.5332 13.5604H37.9064C38.0092 14.8493 38.7612 15.5958 39.9618 15.5958C40.3532 15.59 40.7349 15.4745 41.063 15.2628C41.3912 15.051 41.6524 14.7516 41.8167 14.3989L42.877 14.9638C42.2403 16.1408 41.2151 16.7902 39.9618 16.7902C37.7059 16.7902 36.7032 15.0135 36.7032 13.2518ZM38.0192 12.3734H39.5482L41.7415 12.3958C41.6768 12.0222 41.5024 11.676 41.2402 11.4005C41.0734 11.2373 40.8743 11.1102 40.6556 11.0271C40.4369 10.944 40.2032 10.9068 39.9693 10.9177C39.5244 10.897 39.0861 11.031 38.7301 11.2968C38.374 11.5625 38.1226 11.9433 38.0192 12.3734ZM45.5866 9.87018H44.3834V16.7753H45.5866V9.87018ZM48.216 11.8584C48.216 12.3859 49.0332 12.6024 49.5345 12.682C50.9407 12.9134 51.7453 13.635 51.7453 14.6403C51.7453 15.8298 50.6825 16.8002 49.3766 16.8002C48.0706 16.8002 47.0103 15.8298 47.0103 14.6403H48.2135C48.2135 15.1728 48.7349 15.6058 49.3766 15.6058C50.0183 15.6058 50.5421 15.1728 50.5421 14.6403C50.5421 14.1103 49.6999 13.9212 49.339 13.8615C47.3136 13.528 47.0129 12.463 47.0129 11.8584C47.0129 10.6689 48.0757 9.70099 49.3816 9.70099C50.6875 9.70099 51.7478 10.6689 51.7478 11.8584H50.5446C50.5446 11.3259 50.0233 10.8954 49.3816 10.8954C48.7399 10.8954 48.216 11.3259 48.216 11.8584ZM55.2997 15.4266C55.1948 15.3665 55.1054 15.2831 55.0384 15.1829C54.9714 15.0828 54.9287 14.9686 54.9136 14.8493V11.3955H56.3624V10.2011H54.9136V8.30499H53.7105V10.2011H52.4346V11.3955H53.7105V14.8394C53.7253 15.1642 53.8212 15.4803 53.9897 15.7591C54.1582 16.038 54.3938 16.2709 54.6755 16.4369C55.0298 16.6495 55.4371 16.759 55.8511 16.7529C56.105 16.7514 56.3577 16.7179 56.6031 16.6534V15.4092C56.0692 15.6083 55.6155 15.6257 55.2997 15.4266ZM58.6417 10.4358C59.2212 10.0645 59.8989 9.87273 60.5886 9.88508C61.5014 9.89428 62.3732 10.2626 63.0127 10.9092C63.6523 11.5557 64.0074 12.4278 64 13.3339C63.9999 14.0187 63.7945 14.6879 63.4099 15.2563C63.0253 15.8247 62.479 16.2666 61.8405 16.5257C61.202 16.7849 60.5003 16.8494 59.8248 16.7112C59.1492 16.573 58.5303 16.2383 58.0471 15.7498C57.5638 15.2612 57.2379 14.6409 57.1111 13.9678C56.9842 13.2948 57.062 12.5994 57.3346 11.9704C57.6071 11.3414 58.0622 10.8072 58.6417 10.4358ZM59.3087 15.2355C59.6906 15.4763 60.1363 15.5982 60.5886 15.5859C61.1798 15.5773 61.7437 15.3372 62.1574 14.9177C62.571 14.4982 62.8009 13.9334 62.7969 13.3464C62.7997 12.8972 62.6673 12.4575 62.4167 12.0836C62.1661 11.7096 61.8087 11.4185 61.3904 11.2476C60.972 11.0766 60.5117 11.0336 60.0686 11.124C59.6254 11.2145 59.2196 11.4343 58.9031 11.7553C58.5866 12.0762 58.3739 12.4837 58.2923 12.9254C58.2106 13.3672 58.2637 13.8231 58.4448 14.2347C58.6259 14.6463 58.9267 14.9948 59.3087 15.2355Z" fill="#2B263B"/>
</svg>
